<svg id="Layer_1" data-name="Layer 1" xmlns="http://www.w3.org/2000/svg" viewBox="0 0 1210.2 914.8"><defs><style>.cls-1,.cls-2{fill-rule:evenodd;}.cls-2{fill:#ee1a26;}</style></defs><path class="cls-1" d="M184.8,827.5c0,27.1-18.6,45.7-46.2,45.7H112.5V780.9h26.1c27.6,0,46.2,19,46.2,46.1Zm193.9,76.2v-30H295.5V841.5h72.2v-30H295.5V780.4h82.1v-30H262V903.7Zm152.1,0V873H454.4V750.4H420.7V903.7Zm72.6,0V750.4H569.7V903.7ZM794.2,750.4H757.9L717.8,858.3l-40-107.9H640.6l61.9,154.3h29.8ZM946.5,903.7v-30H863.4V841.5h72.2v-30H863.4V780.4h82v-30H829.9V903.7Zm135.7-100.5c0,12.9-9.4,21.7-25.8,21.7h-34.2v-44h33.5c16.4,0,26.5,7.4,26.5,21.8ZM1121,903.7l-37.5-54.8c19.5-7.2,32.9-22.7,32.9-47.5V801c0-31.5-21.7-50.6-57.8-50.6H988.5V903.7h33.7V854.6h26.5l32.9,49.1Zm168-153.3h-38.3l-37.2,61.5L1177,750.4h-39.4l58.8,92.8v60.5h33.8V842.6ZM220,827v-.4c0-43.1-33.3-76.2-81.4-76.2H78.8V903.7h59.8C186.7,903.7,220,870.2,220,827Z" transform="translate(-78.8 -83.7)"/><path class="cls-1" d="M360.7,997.6H395v-7.8H369.3v-41h-8.6Zm112.1-24.3c0,9.5-6.8,17.3-16.5,17.3s-16.6-7.9-16.6-17.5,6.7-17.3,16.4-17.3S472.8,963.7,472.8,973.3Zm9-.2c0-13.8-10.5-25.2-25.5-25.2s-25.6,11.5-25.6,25.4,10.4,25.2,25.4,25.2S481.8,987,481.8,973.1Zm85.6,17.8V970.3H546.6v7.5h12.5V987a20.2,20.2,0,0,1-11.8,3.7c-10,0-16.6-7.4-16.6-17.6s6.8-17.3,15.8-17.3c6.2,0,9.9,2,13.7,5.2l5.5-6.4c-5.1-4.3-10.3-6.7-18.8-6.7-14.8,0-25.2,11.6-25.2,25.4s10,25.2,25.3,25.2A31.2,31.2,0,0,0,567.4,990.9Zm72.5-12.7H623l8.4-19.5Zm-4.4-29.8h-7.9l-21.5,49.2h8.8l5-11.8H643l5,11.8h9Zm95.7,34.2L705,948.8h-7.9v48.8h8.4V962.9l27,34.7h7.2V948.8h-8.5ZM836.8,977v20.6h8.5V948.8h-8.5v20.3H813.4V948.8h-8.6v48.8h8.6V977Zm89-28.2H889.6v48.8h36.6V990h-28V976.8h24.5v-7.7H898.2V956.4h27.6Zm73.4,15.9c0,5.1-3.9,8.3-10,8.3H976.6V956.6h12.5C995.5,956.6,999.2,959.4,999.2,964.7Zm10.3,32.9-13.2-18.5c6.8-1.9,11.7-6.7,11.7-14.8s-7-15.5-18.2-15.5H968v48.8h8.6v-17h10.8l12,17Zm76.9-48.8h-36.2v48.8h36.6V990h-28V976.8h24.5v-7.7h-24.5V956.4h27.6ZM291.6,961.5c0-3.2,3-5.8,8-5.8s8.9,1.7,13.3,5l4.6-6.5a27.1,27.1,0,0,0-17.8-6.1c-9.7,0-16.6,5.7-16.6,14.2s5.8,12.2,16.2,14.7,11.1,4,11.1,7.5-3.4,6.2-8.7,6.2-10.8-2.3-15.4-6.3l-5.2,6.1a29.8,29.8,0,0,0,20.4,7.8c10.3,0,17.4-5.4,17.4-14.6s-5.3-11.9-15.7-14.4S291.6,965.4,291.6,961.5Z" transform="translate(-78.8 -83.7)"/><path class="cls-2" d="M656.1,576.5a28.4,28.4,0,0,1,.5,5.1,30.3,30.3,0,0,1-58.8,10.5Zm72.1-19.4a104.9,104.9,0,0,1-202.5,54.3l40.1-10.7a63.4,63.4,0,0,0,123.9-19.1,61.9,61.9,0,0,0-1.6-13.7Z" transform="translate(-78.8 -83.7)"/><path class="cls-2" d="M927.3,555.1l92.3-24.7a5.3,5.3,0,0,1,6.5,3.7h0a5.4,5.4,0,0,1-3.7,6.6L930,565.4a5.3,5.3,0,0,1-6.5-3.8h0a5.3,5.3,0,0,1,3.8-6.5" transform="translate(-78.8 -83.7)"/><path class="cls-2" d="M901.3,591.2l142.8-38.3a5.4,5.4,0,0,1,6.5,3.8h0a5.3,5.3,0,0,1-3.8,6.6L904.1,601.5a5.4,5.4,0,0,1-6.6-3.8h0a5.4,5.4,0,0,1,3.8-6.5" transform="translate(-78.8 -83.7)"/><path class="cls-2" d="M375.3,431.7l59.4-15.9a5.2,5.2,0,0,1,6.5,3.8h0a5.3,5.3,0,0,1-3.8,6.5L378.1,442a5.2,5.2,0,0,1-6.5-3.8h0a5.3,5.3,0,0,1,3.7-6.5" transform="translate(-78.8 -83.7)"/><path class="cls-2" d="M342.4,440.5l11.1-3a5.4,5.4,0,0,1,6.5,3.8h0a5.3,5.3,0,0,1-3.7,6.5l-11.2,3a5.3,5.3,0,0,1-6.5-3.7h0a5.3,5.3,0,0,1,3.8-6.6" transform="translate(-78.8 -83.7)"/><path class="cls-2" d="M307.9,478.9l142.8-38.3a5.4,5.4,0,0,1,6.5,3.8h0a5.2,5.2,0,0,1-3.8,6.5L310.7,489.2a5.3,5.3,0,0,1-6.6-3.8h0a5.4,5.4,0,0,1,3.8-6.5" transform="translate(-78.8 -83.7)"/><path class="cls-2" d="M187.5,369l5.7-1.5a5.3,5.3,0,0,1,6.5,3.8h0a5.3,5.3,0,0,1-3.8,6.5l-5.7,1.5a5.3,5.3,0,0,1-6.5-3.7h0a5.3,5.3,0,0,1,3.8-6.6m25.5-6.8,92.3-24.8a5.4,5.4,0,0,1,6.5,3.8,5.3,5.3,0,0,1-3.8,6.6l-92.3,24.7a5.3,5.3,0,0,1-2.7-10.3Zm16.7-91.9,53.7-14.4a5.3,5.3,0,1,1,2.8,10.3l-53.7,14.4a5.3,5.3,0,0,1-2.8-10.3Zm-75.5,49.4,5.7-1.6a5.4,5.4,0,0,1,6.5,3.8h0a5.3,5.3,0,0,1-3.8,6.6l-5.7,1.5a5.2,5.2,0,0,1-6.5-3.8h0A5.2,5.2,0,0,1,154.2,319.7Zm26.5-7.1,110-29.5a5.2,5.2,0,0,1,6.5,3.8,5.3,5.3,0,0,1-3.7,6.5l-110,29.5a5.4,5.4,0,0,1-6.5-3.8A5.3,5.3,0,0,1,180.7,312.6Zm-52.5,43.2L298,310.3a5.3,5.3,0,0,1,6.5,3.7,5.3,5.3,0,0,1-3.8,6.6L131,366.1a5.5,5.5,0,0,1-6.6-3.8A5.4,5.4,0,0,1,128.2,355.8Z" transform="translate(-78.8 -83.7)"/><path class="cls-2" d="M275.2,487.6l8.9-2.3a5.3,5.3,0,0,1,6.5,3.7h0a5.4,5.4,0,0,1-3.7,6.6L278,498a5.5,5.5,0,0,1-6.6-3.8h0a5.5,5.5,0,0,1,3.8-6.6" transform="translate(-78.8 -83.7)"/><path class="cls-2" d="M860.3,602.2l19.7-5.3a5.4,5.4,0,0,1,6.5,3.8h0a5.2,5.2,0,0,1-3.8,6.5l-19.6,5.3a5.3,5.3,0,0,1-6.6-3.8h0a5.4,5.4,0,0,1,3.8-6.5" transform="translate(-78.8 -83.7)"/><path class="cls-2" d="M266.3,605.1l16.1-4.3a5.4,5.4,0,0,1,6.6,3.7h0a5.5,5.5,0,0,1-3.8,6.6l-16.1,4.3a5.2,5.2,0,0,1-6.5-3.8h0a5.3,5.3,0,0,1,3.7-6.5m63-46,61-16.4a5.5,5.5,0,0,1,6.6,3.8,5.4,5.4,0,0,1-3.8,6.5l-61,16.4a5.4,5.4,0,0,1-6.5-3.8A5.3,5.3,0,0,1,329.3,559.1Zm-26.1,36.1,111.6-29.9a5.2,5.2,0,0,1,6.5,3.8,5.3,5.3,0,0,1-3.7,6.5L305.9,605.5a5.3,5.3,0,1,1-2.7-10.3Z" transform="translate(-78.8 -83.7)"/><path class="cls-2" d="M438.3,206.6l-11.7-11.7,86.9-23.3-23.3,86.9-11.8-11.8L441.1,284,401,244ZM318.6,190.1l199.1-53.4a18,18,0,0,1,21.9,12.7l38,141.8A17.9,17.9,0,0,1,565,313L365.9,366.4A17.9,17.9,0,0,1,344,353.8L306,212A17.9,17.9,0,0,1,318.6,190.1Z" transform="translate(-78.8 -83.7)"/><path class="cls-2" d="M1130.9,421.2a30.3,30.3,0,1,1-21.4,37.1,30.4,30.4,0,0,1,21.4-37.1m49.6-66.9a104.9,104.9,0,1,1-126.1,158.5,86.5,86.5,0,0,0,19-31.3c1.6-4.4,3-9,4.4-13.5a63.4,63.4,0,1,0,58.1-80.9C1150,375.3,1165.3,364.7,1180.5,354.3Zm-89.1-42.5c7.8-8.8,17.8-17.8,28.4-22.1,23.9-9.5,39.7-10.3,39.7-10.3s12.8,9.1,12.3,29a137.3,137.3,0,0,0-70.3.2C1098.1,309.5,1094.7,310.6,1091.4,311.8Zm-480,129.8,6.5,24a12.8,12.8,0,0,0,6,7.8,13,13,0,0,0,9.7,1.3l71.1-19.1c-4-8.4-10-16-18-20.9s-20.4-7.8-34.2-4.1ZM552.8,567.7,637.7,545a5.8,5.8,0,0,1,7,4,5.7,5.7,0,0,1-4,6.9l-84.9,22.8a5.7,5.7,0,0,1-3-11ZM547.3,547l84.9-22.8a5.7,5.7,0,0,1,6.9,4,5.8,5.8,0,0,1-4,7l-84.9,22.7a5.8,5.8,0,0,1-7-4A5.6,5.6,0,0,1,547.3,547Zm-33.1,55.8L688,556.2c11.8-3.2,21.8-9.9,27.4-19.9s6.5-20.1,2.8-34l-9.7-36-71.9,19.3a23.9,23.9,0,0,1-18.4-2.4,24.2,24.2,0,0,1-11.3-14.7l-6.4-23.9c-28.2,8.9-54.4,31.4-71.7,59.1s-25.2,59.8-17.4,88.8Zm270-282-4.5,1.2L624.6,363.6C560.7,380.7,495.4,429,464.8,493.7l-25.2,6.7-16.2,31,3.2,11.9c11.8-3.4,21.8.9,20.7,14.4a181.3,181.3,0,0,0,5.7,61.4l50.2-13.4-2.7-10.3c-8.7-32.2.1-67.8,18.8-97.7s49.9-56.5,82.4-65.2l47.9-12.9c17.1-4.6,31.6-1.6,43,5.4,13.7,8.6,22.8,23.1,26.7,37.7l9.8,36.7c4.6,16.9,2.5,31.2-3.8,42.4a47.9,47.9,0,0,1-3.4,5.3l51.8-13.9,35.7,20.7L998,503.4l17.8-29a122.4,122.4,0,0,0,19.8,40.8c34.3-29.9,23.8-44.4,43.9-80,26.4-46.5,70.6-73.6,116.6-105.1a124.9,124.9,0,0,0-91.6-10.5,123.4,123.4,0,0,0-24.3,9.2l-66.3-64.5c-12.1-11.6-18.9-15.6-35-18.4L958,242.3l-86-81-17.2-16.8,30.3-8.1c6.9-13-1.6-45-14.1-52.7L822,96.8l-41.9,39,4.7,17.4-32,29.5a7.9,7.9,0,0,0-2.5,5.6,7.5,7.5,0,0,0,2.2,5.5l4.7,4.6a7.5,7.5,0,0,0,10.3.1l39.2-36.4c19.6,6.9,39.3,26.2,50.4,39.7l74.3,90.6c5.9,18.6,11.8,37.7,11.8,37.7L959,424.6c3.3,20-1.4,30.5-19.9,35.5l-105,28.1c-75,20.1-135.2-72.1-54.9-139.1,8.6-7.2,10-9.8,7.1-20.7Z" transform="translate(-78.8 -83.7)"/><path class="cls-2" d="M603.2,319.4l60.9,21.9,117.2-31.4-5.2-19.5c-3.2-12-15.5-13.8-26.9-10.9-63.8,16.4-80,20.7-136.1,16.7-20.9-1.5-27.1,16.6-9.9,23.2m-151,57.4L308.9,415.2a10.9,10.9,0,0,1-5.7-21.1L577,320.8l67.9,25.6-23.2,6.2c-43.8,11.8-86.4,36.7-119.7,69.9l-31.2-39.4C464.8,375.6,459.7,374.8,452.2,376.8Z" transform="translate(-78.8 -83.7)"/><path class="cls-2" d="M721.5,666.3c263.8,0,477.7,4.9,477.7,10.9s-213.9,10.9-477.7,10.9-477.8-4.9-477.8-10.9,213.9-10.9,477.8-10.9" transform="translate(-78.8 -83.7)"/><path class="cls-2" d="M311.4,620.6l92.3-24.7a5.2,5.2,0,0,1,6.5,3.8h0a5.3,5.3,0,0,1-3.7,6.5L314.2,631a5.5,5.5,0,0,1-6.6-3.8h0a5.5,5.5,0,0,1,3.8-6.6" transform="translate(-78.8 -83.7)"/></svg>